<svg width="360" height="296" viewBox="0 0 360 296" fill="none" xmlns="http://www.w3.org/2000/svg">
<path d="M-0.5 295C0.664682 241.391 14.8243 156.602 125.031 131.519C162.047 124.707 170.63 125.231 229.104 122.611C284.359 118.419 333.392 104.377 360 0" stroke="#36D6AD" stroke-width="2"/>
<path d="M341.225 0C333.823 36.2351 285.003 108.906 148.942 109.707C83.5901 111.505 8.73584 140.319 0.738936 237.389V273.517C-0.215913 260.536 -0.177594 248.514 0.738936 237.389V0H341.225Z" fill="#36D6AD"/>
<path d="M341.225 0C333.823 36.2351 285.003 108.906 148.942 109.707C76.1 111.711 -8.54716 147.278 0.738936 273.517V0H341.225Z" stroke="#36D6AD"/>
</svg>